<svg id="svg2" xmlns:rdf="http://www.w3.org/1999/02/22-rdf-syntax-ns#" xmlns="http://www.w3.org/2000/svg" height="16px" width="16px" version="1.1" xmlns:cc="http://creativecommons.org/ns#" xmlns:dc="http://purl.org/dc/elements/1.1/" viewBox="0 0 18 18">
 <g id="layer1" transform="translate(-228.28331,-116.45419)">
  <rect id="rect4148" style="fill-opacity:0" height="36.42857" width="7.8571429" y="170.21935" x="116.42857"/>
  <rect id="rect4150" style="fill-opacity:0" height="30" width="200" y="153.07649" x="135.71428"/>
  <rect id="rect4154" style="fill-opacity:0;stroke:#000000" height="30" width="200" y="109.50506" x="91.428574"/>
  <path id="path4156" style="stroke:#996793;stroke-width:1.1593968;fill:#996793" transform="matrix(.73339557 0 0 .79395568 26.988567 25.685587)" d="m127.02668 124.28455-10.03839 5.79567-10.03839 5.79567v-11.59134-11.59133l10.03839 5.79567z"/>
  <g id="g4202" transform="translate(-14.142136,4.7244096e-6)">
   <path id="path4166" d="m146.5 116.3622v18" style="stroke:#996793;stroke-width:5;fill:none"/>
   <path id="path4166-0" d="m156.5 116.3622v18" style="stroke:#996793;stroke-width:5;fill:none"/>
  </g>
  <g id="g4226" transform="matrix(.83277767 0 0 .75370155 25.664893 33.009978)">
   <rect id="rect4206" style="stroke:#996793;stroke-width:4.1816263;fill:#996793" height="13.818374" width="25.818375" y="118.45303" x="156.09082"/>
   <circle id="path4210" cx="161.75" cy="124.00507" r="5.4781618" style="stroke:#996793;stroke-width:1.0436767;fill:#ffffff"/>
   <rect id="rect4212" style="stroke:#996793;fill:#ffffff" height="4.4642859" width="13.214286" y="118.96935" x="168.57143"/>
   <path id="path4218" d="m157.72322 110.4622v6" style="stroke:#996793;stroke-width:1.3662614px;fill:none"/>
  </g>
  <g id="g4332" transform="matrix(.81418152 0 0 .9900163 35.3177 1.397561)">
   <rect id="rect4232" style="stroke:#996793;stroke-width:1.2;fill:none" height="16.981668" width="28.981667" y="116.87139" x="190.50917"/>
   <path id="path4242" style="stroke:#996793;stroke-width:2.1073744;fill:#ffffff" d="m220.13394 116.91577-7.63752 13.29345-7.63752 13.29346-7.69371-13.26102-7.69371-13.26101 15.33123-0.0324z" transform="matrix(.8899539 0 0 .36434393 22.709438 74.373248)"/>
  </g>
  <path id="path4287" style="fill:#996793" d="m246.28362 126.43235v-2.1588l-1.95912-0.7195c-0.17064-0.65903-0.39955-1.28141-0.73785-1.85353l0.0197-0.003 0.93246-1.94207-1.52208-1.52629-1.93991 0.92408-0.003 0.003c-0.57211-0.33831-1.19337-0.55304-1.85252-0.72349l-0.71906-1.97856h-2.15862l-0.71955 1.97868c-0.65914 0.17039-1.28126 0.40916-1.85337 0.7477l-0.003-0.0149-1.94179-0.93011-1.52624 1.52325 0.92404 1.94033 0.003 0.003c-0.33854 0.57206-0.674 1.19377-0.84439 1.85281l-2.09901 0.71913v2.15881l2.09907 0.71956c0.17039 0.65927 0.46955 1.28117 0.80815 1.8534l0.015 0.003-0.91486 1.94172 1.5307 1.52657 1.94415-0.92401 0.004-0.003c0.57224 0.33806 1.19483 0.65391 1.85398 0.8246l0.72003 2.0798h2.15862l0.71967-2.07973c0.65914-0.17071 1.281-0.45991 1.85311-0.79821l0.003-0.0111 1.94192 0.91761 1.52612-1.52972-0.92406-1.94384-0.003-0.004c0.33831-0.57216 0.53364-1.19448 0.70427-1.85359l1.95906-0.71985zm-8.85956 2.51848c-1.98697 0-3.59778-1.61041-3.59778-3.59779 0-1.98696 1.61081-3.59798 3.59778-3.59798 1.98721 0 3.59778 1.61102 3.59778 3.59798 0 1.98738-1.61057 3.59779-3.59778 3.59779z"/>
 </g>
</svg>
